<?xml version="1.0" encoding="UTF-8"?><svg id="uuid-fb85cb31-f72c-407e-88e9-65ef97a3785d" xmlns="http://www.w3.org/2000/svg" viewBox="0 0 1080 300"><defs><style>.uuid-952f0c44-194b-4297-b8c7-dfaa1c2bcc7f{fill:#283c6f;}.uuid-952f0c44-194b-4297-b8c7-dfaa1c2bcc7f,.uuid-0238d376-91f1-427c-a206-e9ad2c8a9460,.uuid-38988023-927c-414c-8084-56c071ce3850,.uuid-ff3c8c75-3626-43ac-8973-058399bd0192{stroke-width:0px;}.uuid-c0bcd993-efef-4214-87af-f082ece53876{fill:none;stroke:#606060;stroke-miterlimit:10;stroke-width:.5px;}.uuid-0238d376-91f1-427c-a206-e9ad2c8a9460{fill:#2c3b6b;}.uuid-38988023-927c-414c-8084-56c071ce3850{fill:#479ad5;}.uuid-ff3c8c75-3626-43ac-8973-058399bd0192{fill:#439bdb;}</style></defs><path class="uuid-952f0c44-194b-4297-b8c7-dfaa1c2bcc7f" d="M345.4,227.6l21.3-49.1h.5l21.3,49.1h-10.8l-13.6-34.5,6.7-4.6-16.3,39.2h-9.2ZM359.9,210.6h14.2l3.3,7.8h-20.4l2.9-7.8Z"/><path class="uuid-952f0c44-194b-4297-b8c7-dfaa1c2bcc7f" d="M450.5,229.6l-35.8-32.4,2.8,1.5.2,28.9h-9.4v-49.1h.4l35.1,32.2-2.1-.9-.2-29.5h9.4v49.2h-.3Z"/><path class="uuid-952f0c44-194b-4297-b8c7-dfaa1c2bcc7f" d="M475.8,180.4h9.3v47.3h-9.3v-47.3Z"/><path class="uuid-952f0c44-194b-4297-b8c7-dfaa1c2bcc7f" d="M510.2,227.6v-49.2h0l26.3,37.2-4-.9,26.2-36.3h.1v49.2h-9.3v-28.2l.6,4.8-16,22.7h-.1l-16.4-22.7,1.6-4.4v27.8h-9Z"/><path class="uuid-952f0c44-194b-4297-b8c7-dfaa1c2bcc7f" d="M578.6,227.6l21.3-49.1h.5l21.3,49.1h-10.8l-13.6-34.5,6.7-4.6-16.3,39.2h-9.2ZM593.1,210.6h14.2l3.3,7.8h-20.4l2.9-7.8Z"/><path class="uuid-952f0c44-194b-4297-b8c7-dfaa1c2bcc7f" d="M641.4,180.4h9.3v38.3h22.2v9h-31.5v-47.3Z"/><path class="uuid-952f0c44-194b-4297-b8c7-dfaa1c2bcc7f" d="M743.5,180.4c3,0,5.6.4,7.9,1.1,2.3.7,4.2,1.8,5.8,3.2,1.6,1.4,2.7,3.1,3.6,5,.8,1.9,1.2,4.1,1.2,6.6s-.3,3.9-.9,5.8c-.6,1.9-1.5,3.7-2.8,5.3-1.3,1.6-3,2.9-5.2,3.8-2.1,1-4.8,1.4-8,1.4h-6.7v15h-9.3v-47.3h14.3ZM745.1,203.6c1.4,0,2.6-.2,3.5-.7.9-.5,1.7-1.1,2.2-1.8.5-.7.9-1.5,1.2-2.3.2-.8.4-1.5.4-2.2s0-1.2-.2-2c-.2-.8-.5-1.6-.9-2.4-.5-.8-1.2-1.5-2.2-2.1-1-.6-2.3-.8-3.9-.8h-6.7v14.3h6.6ZM753.8,209.4l11.7,18.2h-10.9l-11.9-18,11.1-.3Z"/><path class="uuid-952f0c44-194b-4297-b8c7-dfaa1c2bcc7f" d="M786,180.4h32.2v9h-22.9v10.1h20.3v9h-20.3v10.2h23.8v9h-33.1v-47.3Z"/><path class="uuid-952f0c44-194b-4297-b8c7-dfaa1c2bcc7f" d="M866.9,191.8c-1.8-1-3.6-1.8-5.5-2.4-1.9-.6-3.6-1-5.2-1s-3.6.4-4.8,1.2c-1.2.8-1.7,2-1.7,3.7s.4,2.1,1.3,3c.9.9,2,1.7,3.4,2.3,1.4.7,2.8,1.3,4.3,1.9,1.4.5,2.7,1.1,4.1,1.8,1.3.7,2.6,1.6,3.6,2.6,1.1,1,1.9,2.4,2.6,3.9.6,1.6,1,3.5,1,5.7s-.6,4.6-1.9,6.7c-1.2,2.1-3.1,3.7-5.5,5-2.4,1.3-5.4,1.9-8.9,1.9s-3.6-.2-5.5-.5-3.7-.9-5.5-1.7c-1.8-.7-3.5-1.7-5.2-2.9l4.1-7.3c1.1.8,2.3,1.5,3.6,2.2,1.3.6,2.6,1.1,3.9,1.4,1.3.3,2.5.5,3.7.5s2.2-.2,3.4-.5c1.1-.3,2.1-.9,2.8-1.6.7-.8,1.1-1.8,1.1-3.2s-.3-1.8-.9-2.6c-.6-.8-1.5-1.5-2.5-2.1-1-.6-2.2-1.2-3.4-1.7-1.5-.6-3-1.2-4.5-1.9-1.5-.7-3-1.6-4.3-2.7-1.3-1-2.4-2.4-3.3-3.9-.8-1.6-1.3-3.5-1.3-5.7s.6-5.1,1.8-7.1c1.2-2,2.9-3.6,5.2-4.8,2.2-1.2,4.8-1.8,7.7-2,3.8,0,6.9.4,9.3,1.3s4.5,2,6.4,3.2l-3.5,7.1Z"/><path class="uuid-952f0c44-194b-4297-b8c7-dfaa1c2bcc7f" d="M927.3,223.7c-.5.4-1.5,1-2.9,1.7-1.4.7-3.1,1.4-5.1,1.9-2,.6-4.2.8-6.7.8-3.7,0-7.1-.8-10-2-2.9-1.3-5.4-3-7.4-5.2-2-2.2-3.6-4.7-4.7-7.5-1.1-2.8-1.6-5.8-1.6-9.1s.5-6.9,1.6-9.9c1.1-3,2.7-5.6,4.7-7.8,2-2.2,4.5-3.9,7.3-5.1,2.8-1.2,5.9-1.8,9.4-1.8s6,.4,8.4,1.3c2.4.9,4.4,1.8,6,2.8l-3.7,8.8c-1.1-.8-2.5-1.7-4.3-2.5-1.8-.9-3.8-1.3-6.1-1.3s-3.5.4-5.2,1.1c-1.6.7-3.1,1.8-4.4,3.2-1.3,1.4-2.3,3-3,4.8-.7,1.8-1.1,3.8-1.1,5.9s.3,4.3,1,6.2c.7,1.9,1.6,3.5,2.9,4.8,1.2,1.3,2.7,2.4,4.5,3.1,1.7.7,3.7,1.1,5.9,1.1s4.7-.4,6.5-1.2c1.8-.8,3.2-1.7,4.1-2.6l3.9,8.3Z"/><path class="uuid-952f0c44-194b-4297-b8c7-dfaa1c2bcc7f" d="M957.8,210.2c0,1.5.4,2.9,1.3,4.3.9,1.4,2.1,2.5,3.6,3.3,1.5.9,3.1,1.3,4.8,1.3s3.6-.4,5.1-1.3c1.5-.9,2.7-2,3.6-3.3.9-1.4,1.3-2.8,1.3-4.3v-29.8h9.2v30c0,3.5-.9,6.5-2.6,9.2-1.7,2.7-4,4.8-6.9,6.3-2.9,1.5-6.1,2.3-9.7,2.3s-6.7-.8-9.6-2.3c-2.9-1.5-5.2-3.6-6.9-6.3-1.7-2.7-2.6-5.7-2.6-9.2v-30h9.3v29.8Z"/><path class="uuid-952f0c44-194b-4297-b8c7-dfaa1c2bcc7f" d="M1010.9,180.4h32.2v9h-22.9v10.1h20.3v9h-20.3v10.2h23.8v9h-33.1v-47.3Z"/><path class="uuid-ff3c8c75-3626-43ac-8973-058399bd0192" d="M345.4,74.3h8.3v53.9h31.4v8h-39.7v-61.9Z"/><path class="uuid-ff3c8c75-3626-43ac-8973-058399bd0192" d="M404.4,136.2l27-64.4h.5l27,64.4h-9.5l-20.2-51.4,5.9-3.9-22.5,55.3h-8.2ZM420.3,112.8h23l2.7,7.2h-28.2l2.4-7.2Z"/><path class="uuid-ff3c8c75-3626-43ac-8973-058399bd0192" d="M490.9,99.3l-.2,3.1,1-1.5,25.3-26.4h10.7l-25.6,26.5,27,35.3h-10.5l-22.6-30-5.2,5v25h-8.4v-61.9h8.4v24.9Z"/><path class="uuid-ff3c8c75-3626-43ac-8973-058399bd0192" d="M552.7,74.3h40.2v8h-31.9v18.8h28.5v8h-28.5v19.1h33.1v8h-41.4v-61.9Z"/><path class="uuid-ff3c8c75-3626-43ac-8973-058399bd0192" d="M659.5,136.2v-63.8h0l32.4,46.1-3.5-.8,32.4-45.4h0v63.8h-8.3v-45l.6,4.2-23.3,33h-.2l-23.7-33,1.4-3.9v44.7h-8Z"/><path class="uuid-ff3c8c75-3626-43ac-8973-058399bd0192" d="M744.6,136.2l27-64.4h.5l27,64.4h-9.5l-20.2-51.4,5.9-3.9-22.5,55.3h-8.2ZM760.5,112.8h23l2.7,7.2h-28.2l2.4-7.2Z"/><path class="uuid-ff3c8c75-3626-43ac-8973-058399bd0192" d="M839.2,74.3c3.1,0,6,.4,8.7,1.2,2.7.8,5,2.1,6.9,3.7,2,1.6,3.5,3.6,4.6,6,1.1,2.4,1.7,5.1,1.7,8.2s-.4,4.9-1.1,7.2c-.7,2.3-1.9,4.5-3.5,6.4-1.6,1.9-3.8,3.5-6.4,4.6-2.7,1.2-5.9,1.8-9.9,1.8h-9.2v22.8h-8.3v-61.9h16.4ZM840,105.4c2.5,0,4.5-.4,6.1-1.1,1.6-.7,2.9-1.7,3.8-2.9.9-1.2,1.6-2.4,2-3.7.4-1.3.6-2.6.6-3.9s-.2-2.5-.6-3.9c-.4-1.3-1.1-2.6-2.1-3.7-.9-1.2-2.2-2.1-3.7-2.9-1.5-.7-3.4-1.1-5.5-1.1h-9.6v23.1h9ZM850.2,110.2l16.2,26h-9.6l-16.5-25.8,9.9-.3Z"/><path class="uuid-ff3c8c75-3626-43ac-8973-058399bd0192" d="M885.7,74.3h41.2v8h-16.6v53.9h-8.3v-53.9h-16.3v-8Z"/><path class="uuid-ff3c8c75-3626-43ac-8973-058399bd0192" d="M952,74.3h8.3v61.9h-8.3v-61.9Z"/><path class="uuid-ff3c8c75-3626-43ac-8973-058399bd0192" d="M1043.7,138.2l-47.8-48.5,2.4.6.2,46h-8.3v-63.8h.4l47.2,48.7-1.9-.4-.2-46.4h8.3v63.8h-.3Z"/><line class="uuid-c0bcd993-efef-4214-87af-f082ece53876" x1="345.4" y1="158.9" x2="1044" y2="158.9"/><path class="uuid-38988023-927c-414c-8084-56c071ce3850" d="M268.3,187.3c-15.7,3.2-32,3.2-47.8,6.7,2.1.1,4.3.3,6.4.4,11.9,0,23.8,0,35.6.2,4.5,0,9,.7,13.4,1.2,1.1.1,2.2.7,3.3,1.1,0,.3,0,.6.1.9-1.6.6-3.2,1.5-4.9,1.7-11.3,1.3-22.5,2.7-33.9,3.6-11.3.9-22.7,1.3-34,2-1.8.1-3.5.7-5.2,1.1,0,.4-.1.7-.2,1.1,1.6.6,3.2,1.5,4.8,1.8,9,1.5,18,2.9,27,4.4,10.4,1.7,20.8,3.3,31.2,5,1.7.3,3.4,1.1,5.1,1.7,0,.3,0,.7,0,1-1.3.4-2.5,1-3.8,1.1-10,.7-20,1.3-30,1.8-10.3.5-20.7.8-31,1.3-2.2.1-4.4.6-6.5,1v1.2c1.7.5,3.5,1.2,5.4,1.4,9.6,1.3,19.3,2.4,28.9,3.8,3.9.5,7.8,1.4,11.7,2.3,1.2.3,2.4.9,3.6,1.4v.9c-1.6.6-3.2,1.4-4.8,1.6-7.3.7-14.7,1.1-22,1.8-4,.4-7.9.9-11.8,1.6-.9.1-1.6,1.1-2.4,1.6.7.7,1.3,1.7,2.1,2,3.9,1.6,7.9,2.9,11.7,4.6,1.6.7,2.9,2,4.3,3-1.6.8-3.2,2.2-4.9,2.3-13.2,1.4-26.5,3.1-39.7,3.6-15.3.6-30.7.5-46,0-8.8-.3-17.5-1.9-26.2-3-1.3-.2-2.5-.9-3.8-1.4v-1c1.1-.6,2.3-1.4,3.5-1.7,7.4-1.7,14.8-3.2,22.2-4.9,1.8-.4,3.6-1.1,5.4-1.7,0-.3,0-.7,0-1-1.3-.4-2.5-1-3.8-1.1-11.1-.9-22.2-1.7-33.4-2.6-4.7-.4-9.4-1-14-1.5-.9-.1-1.8-.5-2.7-.7,0-.3,0-.6,0-.9,2.5-.5,5.1-1.2,7.7-1.4,17.2-1.7,34.4-3.3,51.6-5.1,7.4-.8,14.8-2,22.2-3.1,1.2-.2,2.4-.8,3.6-1.2,0-.3,0-.5,0-.8-1.3-.3-2.6-.9-4-.9-14.6-.6-29.2-1.2-43.9-1.8-18-.7-36-1.2-54-2-3-.1-6-1.1-9-1.7,0-.5,0-.9,0-1.4,1.4-.4,2.8-1.1,4.2-1.2,9-.9,17.9-1.9,26.9-2.3,13.9-.7,27.8-1,41.7-1.5,1,0,2-.2,3-.6-31-3.6-62.3-3.9-93.2-8.2,0-.4,0-.9,0-1.3,1.3-.4,2.6-1,3.9-1.1,14.8-1.2,29.6-2.3,44.4-3.6,3.5-.3,7-.8,10.4-1.2,0-.4,0-.9.1-1.3-1.3-.5-2.6-1.4-4-1.6-9.5-1.5-19-2.7-28.5-4.3-7-1.2-16.9-.7-21-4.1s-8.6-21.7-9.2-22.8c41.4,20.4,82.7,25.1,124.7,24.5,48-.7,95.6-9.4,123.3-25.8,2.9-1.7,4.1,3.2,3.6,7.2-1.2,9-8.3,16.2-17.2,18ZM120.3,270.5c24.8,2.7,49.6,2.9,74.4,0-6.6-4.1-68.9-4-74.4,0Z"/><path class="uuid-0238d376-91f1-427c-a206-e9ad2c8a9460" d="M143.9,117.4c-5.6-3.1-5.8,0-11.6,0,5.6,1.1,5.4-2.9,11.2.7.8.5,2.7,1.3,4.1,2,.9.5,1.4.7,1.5,1.1.2.8-1.5,2.2-3,1.6-1.2-.4-.9,1.4-3.7-.2-1.1-.7-1.8,0-2.6.2-.6.2-1.1-.2-2.3-.9-.5-.4-1.2,0-2.1.6-1.5,1-3.7,2.8-6.5,4-3.1,1.4-4.3,1.6-4.8,1-.6-.9.3-3.4-.7-6.7-.4-1.2-.3-3.5-.4-4.8,0,0,0,0,0,0,0-.2.2-.8-.1-.9,0,.2,0,.2,0,.4-.8,5.3,1,5.7.3,9.3-1.6,7.9,9.4.9,13.1-1.8,1-.7.7-.9,1.6,0,.6.5,1.2,1,2.1.6.3,0,.6,0,.8-.3.3,0,.7,0,1,0,.6,1,2.3.6,4,.4,1-.1,1.8,0,2.1-.2,5-3.1-2-4.9-4-6.1Z"/><path class="uuid-0238d376-91f1-427c-a206-e9ad2c8a9460" d="M84.2,156.1c1.7.9,3.6.2,5.2-1,1.7-1.3,3-3.2,3.3-4.1-2.2,2.6-5.1,5.3-8.5,5Z"/><path class="uuid-0238d376-91f1-427c-a206-e9ad2c8a9460" d="M193.4,146.6c-1.2.8-3.3-4.6-2.1-7.4-2.8,2.3.9,12.7,4.3,5.7,2.4-5,1-3.2,3.3-4.1-3-1.4-3.5,4.3-5.6,5.8Z"/><path class="uuid-0238d376-91f1-427c-a206-e9ad2c8a9460" d="M95,148.6c-.7.8-1.5,1.7-2.2,2.5,1.4.2,3.3.5,3.3-.7,0-.8-.5-1.4-1.1-1.8Z"/><path class="uuid-0238d376-91f1-427c-a206-e9ad2c8a9460" d="M208,155.7c.6.5,1.1,1,1.6,1.4.7.7.8.8.3,1.7-.2.4-.7.8-1.3,1.3-.4.3-1,.6-1.1.9,0,0,.2,0,.3,0,3.9-2,4.9-3.2.3-5.2Z"/><path class="uuid-0238d376-91f1-427c-a206-e9ad2c8a9460" d="M158.7,27.3c-68.9,0-124.7,55.8-124.7,124.7,41.7,26.1,76.8,27.9,130.4,26.1,44.8-1.5,64.2-1.5,119-26.1,0-68.9-55.8-124.7-124.7-124.7ZM161.2,134.7c-.1.5-.4,1-.9,1.4-1.5,1.2-3.8-.1-4.7-1.8s-1.1-3.7-2.2-5.3c-1.4,1.8-4.1,2.3-6.3,1.6-2.2-.7-4-2.2-5.7-3.8-2.4,4.8-5.2,9.9-10,12.1-5.4,2.6-11.8.8-17.8.5-.5,0-1,0-1.4.2-.5.3-.7.8-.9,1.2-1.8,4.5.5,10-1.8,14.3-2.3,4.3-8.5,5.1-13,3.3-1.6-.6-3.1-1.5-4.8-1.9-1.7-.4-3.6,0-4.7,1.3-1,1.3-.8,3.2-.9,4.8-.2,3.2-1.8,6.2-4.3,8.2-1.3-.4-1.9-2-1.7-3.3.2-1.3.9-2.5,1.5-3.7,1.2-2.4,2-5,1.7-7.7-.5-1.2-2.4-.8-3.1.2-.7,1.1-.5,2.4-.6,3.7-.2,4-2.5,7.8-6,9.8-2.1-.7-2.5-3.5-1.8-5.6.8-2,2.4-3.7,3.1-5.8.8-2.2.7-4.6,1.5-6.8.8-2.2,3.3-4.1,5.3-2.9,2-4.5,3.7-9.1,5-13.8-2.6,2.7-6.1,4.9-9.8,5.2-3.8.3-7.9-1.6-9.4-5-1.5-3.3-.4-7.1.6-10.6,1.6,3.5.2,8.3,2.9,11,1.8,1.9,4.9,1.9,7.3,1,2.4-.9,4.4-2.7,6.5-4.2,8.5-6.1,19.1-8.4,28.1-13.6,1.4-.8,2.8-1.7,3.9-3,.9-1.1,1.5-2.5,2.1-3.8,1.9-4.4,3.9-8.7,5.8-13.1,1.6-3.5,3.2-7.2,3.4-11,.2-3.2-.5-6.7,1.5-9.2.6-.8,1.5-1.5,2.1-2.3.5-.6.7-1.5.9-2.1.7.6.5,1.8,0,2.5-.7,1-1.7,2.2-1,3.3,2.6,2,6.4-.8,9.5.3.8.3,1.6.9,2.5.9,1.8,0,2.8-2,4.3-3,1.6-1,3.9-.7,5.1.6,1.3,1.4,1.3,3.7.1,5.2,1.2.7,1.9,2.3,1.5,3.7-.3,1.1-1.1,1.9-1.9,2.7-3,2.9-6,5.8-8.9,8.7-1.2,1.8.4,4.2,1.7,6,2.3,3.2,3.8,6.9,4.2,10.8.2,1.5.2,3.1.8,4.5.5,1.4,1.7,2.8,3.2,2.9.7,0,1.3,0,2,0,1.2.3,1.9,1.5,2.4,2.7.7,1.5,1.4,3,2.1,4.6.6,1.2,1.1,2.8.8,4ZM163.1,66.8c-2,2.4-5.6,2.7-8,.7-2.4-2-2.7-5.6-.7-8,2-2.4,5.6-2.7,8-.7,2.4,2,2.7,5.6.7,8ZM245.2,139.9c-.2,1.3-.9,2.5-1,3.8-.2,2,1.1,3.8,2.7,4.9.6.4,1.3.8,1.6,1.4.4.9.1,1.9-.2,2.8-1.1,3.1-2.2,6.1-3.3,9.2-.2.5-.4,1-.7,1.4-.5.7-1.4,1-2.2,1.2-1.3.3-3,.4-3.5-.8-.5-1.2.7-2.4,1.7-3.3,1.8-1.7,3.2-4.2,2.6-6.6-1-4.2-7.1-5.6-7.9-9.8-.7.7-1.3,1.4-2,2.1,1.3,1.9,2.6,3.8,3.9,5.6.2.3.4.6.4,1,0,.3-.2.6-.5.9-1.4,1.7-2.8,3.4-4.2,5.2-.7.9-1.4,1.8-2.4,2.4-1.6,1-3.5,1.1-5.4,1.2-.3,0-.6,0-.9-.1-.9-.5-.1-1.9.7-2.4,1.2-.8,2.5-1.4,3.7-2.2,1.2-.8,2.3-2,2.5-3.4s-.6-3.1-2-3.3c-1-.2-1.9.3-2.8.8-2.1,1.1-4.1,2.2-6.2,3.3-.3.1-.5.3-.7.5-.9,1.2,1,2.7.9,4.2-.1,1.4-1.8,1.9-3.2,2.3-6.4,1.9-10.5,8.7-16.9,10.4-1.8.5-3.9.5-5.4-.7.3-1.8,2.1-2.9,3.7-3.9,3.2-1.9,6.2-4.2,8.9-6.8-1,.1-2,.2-2.9-.2-.9-.4-1.6-1.5-1.2-2.4.4-.9,1.5-1.1,2.4-1.4.9-.3,2-.9,1.8-1.9-1.4-1.7-2.8-3.4-4.3-5.1-.5-.6-1.2-1.3-2-1.1-.7,2.1-1.5,4.3-2.2,6.4-.2.6-.4,1.3-.8,1.8-1.3,1.8-4,1.9-6.3,1.8-.4,0-.9,0-1.2-.4-.3-.3-.3-.8-.4-1.2-.1-2.1-.3-4.2-.4-6.2,0-.7-.1-1.4-.6-1.9-.3-.3-.8-.5-1.2-.8-.4-.4-.5-.9-.6-1.5-.4-2.1-.8-4.2-1.1-6.3-.6,2.3-1.6,4.4-3,6.3.4-1.1.6-2.3.4-3.4-.1-.6-.3-1.2-.3-1.9,0-2,1.9-3.4,3.7-4.2,5.3-2.5,11.5-3,17.2-1.4.9.2,1.7.5,2.6.6.1,0,.2,0,.4,0,.7,0,1.4-.1,2.1-.3,3.8-.7,7.6-1.5,10.9-3.5,2.4-1.5,4.4-3.6,7-4.9,3.9-1.9,8.6-1.4,12.5.5.4.2.7.3,1.1.3.4,0,.7-.3,1-.5,2.3-1.7,4.6-3.4,6.9-5.1.6-.5,2.1-2.1,3-2,1.7.2,1,1.8.2,2.6-1.5,1.4-2.9,2.7-4.4,4.1-1.5,1.4-3,2.9-3.3,4.9-.3,2.3,1.1,4.6.8,6.9Z"/><path class="uuid-0238d376-91f1-427c-a206-e9ad2c8a9460" d="M230.5,148.8c-.9.7-2,1.4-1.9,1.5.1.2,2.2-1.2,2.5-1.5.7-.6,1.4-1.4,1.9-2.4-.5.4-1,.9-1.4,1.3-.2.2-.6.6-1.1,1Z"/></svg>